<?xml version="1.0" encoding="UTF-8"?>
<!DOCTYPE svg PUBLIC "-//W3C//DTD SVG 1.1//EN" "http://www.w3.org/Graphics/SVG/1.1/DTD/svg11.dtd">
<svg xmlns="http://www.w3.org/2000/svg" version="1.1" width="128px" height="128px" style="shape-rendering:geometricPrecision; text-rendering:geometricPrecision; image-rendering:optimizeQuality; fill-rule:evenodd; clip-rule:evenodd" xmlns:xlink="http://www.w3.org/1999/xlink">
<g><path style="opacity:0.921" fill="#4cabfe" d="M 59.5,10.5 C 62.5,14.5 65.5,18.5 68.5,22.5C 66.8828,21.962 65.2161,21.6287 63.5,21.5C 61.1414,18.1486 58.8081,14.8153 56.5,11.5C 57.391,10.8902 58.391,10.5569 59.5,10.5 Z"/></g>
<g><path style="opacity:0.965" fill="#49adfe" d="M 59.5,10.5 C 60.5,10.5 61.5,10.5 62.5,10.5C 64.7485,14.7542 67.4152,18.7542 70.5,22.5C 69.8333,22.5 69.1667,22.5 68.5,22.5C 65.5,18.5 62.5,14.5 59.5,10.5 Z"/></g>
<g><path style="opacity:0.937" fill="#46b1fe" d="M 62.5,10.5 C 64.1667,10.5 65.8333,10.5 67.5,10.5C 75.1504,20.813 83.1504,30.813 91.5,40.5C 91.5,42.8333 91.5,45.1667 91.5,47.5C 94.1522,47.4095 96.4855,48.0762 98.5,49.5C 100.738,54.0711 103.738,58.0711 107.5,61.5C 107.5,63.8333 107.5,66.1667 107.5,68.5C 98.5443,56.8756 89.211,45.5422 79.5,34.5C 77.9999,29.3386 74.9999,25.3386 70.5,22.5C 67.4152,18.7542 64.7485,14.7542 62.5,10.5 Z"/></g>
<g><path style="opacity:0.967" fill="#43b4fe" d="M 67.5,10.5 C 68.1667,10.5 68.8333,10.5 69.5,10.5C 76.6046,19.723 83.9379,28.723 91.5,37.5C 91.5,38.5 91.5,39.5 91.5,40.5C 83.1504,30.813 75.1504,20.813 67.5,10.5 Z"/></g>
<g><path style="opacity:0.871" fill="#41b7fe" d="M 69.5,10.5 C 83.45,14.116 90.7833,23.116 91.5,37.5C 83.9379,28.723 76.6046,19.723 69.5,10.5 Z"/></g>
<g><path style="opacity:0.911" fill="#50a5fe" d="M 56.5,11.5 C 58.8081,14.8153 61.1414,18.1486 63.5,21.5C 61.9582,22.3007 60.2915,22.634 58.5,22.5C 56.7583,19.3566 54.7583,16.3566 52.5,13.5C 53.5137,12.3263 54.847,11.6596 56.5,11.5 Z"/></g>
<g><path style="opacity:0.923" fill="#559ffe" d="M 52.5,13.5 C 54.7583,16.3566 56.7583,19.3566 58.5,22.5C 57.7095,23.4013 56.7095,24.0679 55.5,24.5C 53.5419,21.2085 51.2085,18.2085 48.5,15.5C 49.5137,14.3263 50.847,13.6596 52.5,13.5 Z"/></g>
<g><path style="opacity:0.949" fill="#5a98fe" d="M 48.5,15.5 C 51.2085,18.2085 53.5419,21.2085 55.5,24.5C 54.5,25.1667 53.5,25.8333 52.5,26.5C 50.6281,23.4181 48.2948,20.7514 45.5,18.5C 46.1667,17.1667 47.1667,16.1667 48.5,15.5 Z"/></g>
<g><path style="opacity:0.937" fill="#6092fe" d="M 45.5,18.5 C 48.2948,20.7514 50.6281,23.4181 52.5,26.5C 52.0679,27.7095 51.4013,28.7095 50.5,29.5C 48.3971,26.2802 46.0638,23.2802 43.5,20.5C 43.8333,19.5 44.5,18.8333 45.5,18.5 Z"/></g>
<g><path style="opacity:0.91" fill="#658cfe" d="M 43.5,20.5 C 46.0638,23.2802 48.3971,26.2802 50.5,29.5C 50.4431,30.609 50.1098,31.609 49.5,32.5C 46.8333,29.5 44.1667,26.5 41.5,23.5C 41.427,21.9731 42.0937,20.9731 43.5,20.5 Z"/></g>
<g><path style="opacity:0.882" fill="#6987fe" d="M 41.5,23.5 C 44.1667,26.5 46.8333,29.5 49.5,32.5C 49.6716,33.4916 49.3382,34.1583 48.5,34.5C 46.8606,32.1939 44.8606,30.1939 42.5,28.5C 41.5,27.8333 40.5,27.1667 39.5,26.5C 39.427,24.9731 40.0937,23.9731 41.5,23.5 Z"/></g>
<g><path style="opacity:0.915" fill="#6e81fe" d="M 39.5,26.5 C 40.5,27.1667 41.5,27.8333 42.5,28.5C 44.016,31.5331 46.016,34.1997 48.5,36.5C 48.5,37.8333 48.5,39.1667 48.5,40.5C 47.5,39.8333 46.5,39.1667 45.5,38.5C 45.2624,36.5956 44.2624,35.2623 42.5,34.5C 41.9202,32.2512 40.5869,30.5846 38.5,29.5C 38.2627,28.209 38.596,27.209 39.5,26.5 Z"/></g>
<g><path style="opacity:0.961" fill="#6b84fe" d="M 42.5,28.5 C 44.8606,30.1939 46.8606,32.1939 48.5,34.5C 48.5,35.1667 48.5,35.8333 48.5,36.5C 46.016,34.1997 44.016,31.5331 42.5,28.5 Z"/></g>
<g><path style="opacity:0.895" fill="#717dfe" d="M 37.5,30.5 C 37.5,29.8333 37.8333,29.5 38.5,29.5C 40.5869,30.5846 41.9202,32.2512 42.5,34.5C 40.8333,33.1667 39.1667,31.8333 37.5,30.5 Z"/></g>
<g><path style="opacity:0.905" fill="#7a73ff" d="M 37.5,34.5 C 43.4888,43.1475 49.8222,51.4809 56.5,59.5C 54.8333,59.5 53.1667,59.5 51.5,59.5C 46.984,52.467 41.984,45.8003 36.5,39.5C 36.2155,37.5853 36.5489,35.9187 37.5,34.5 Z"/></g>
<g><path style="opacity:1" fill="#717dfe" d="M 42.5,34.5 C 44.2624,35.2623 45.2624,36.5956 45.5,38.5C 43.7376,37.7377 42.7376,36.4044 42.5,34.5 Z"/></g>
<g><path style="opacity:0.951" fill="#49adfe" d="M 79.5,34.5 C 89.211,45.5422 98.5443,56.8756 107.5,68.5C 107.5,69.5 107.5,70.5 107.5,71.5C 98.5303,60.3527 89.697,49.0194 81,37.5C 80.6174,38.056 80.1174,38.3893 79.5,38.5C 79.5,37.1667 79.5,35.8333 79.5,34.5 Z"/></g>
<g><path style="opacity:0.961" fill="#4caafe" d="M 107.5,71.5 C 107.5,73.5 107.5,75.5 107.5,77.5C 103.087,72.4278 99.0867,67.0945 95.5,61.5C 94.5,60.8333 93.5,60.1667 92.5,59.5C 88.543,53.5434 84.2097,47.8767 79.5,42.5C 79.5,41.1667 79.5,39.8333 79.5,38.5C 80.1174,38.3893 80.6174,38.056 81,37.5C 89.697,49.0194 98.5303,60.3527 107.5,71.5 Z"/></g>
<g><path style="opacity:0.882" fill="#717dfe" d="M 45.5,38.5 C 46.5,39.1667 47.5,39.8333 48.5,40.5C 48.5,41.1667 48.5,41.8333 48.5,42.5C 46.7376,41.7377 45.7376,40.4044 45.5,38.5 Z"/></g>
<g><path style="opacity:0.884" fill="#7e6dff" d="M 36.5,39.5 C 41.984,45.8003 46.984,52.467 51.5,59.5C 50.1667,59.5 48.8333,59.5 47.5,59.5C 44.5653,54.235 40.8986,49.5683 36.5,45.5C 36.5,43.5 36.5,41.5 36.5,39.5 Z"/></g>
<g><path style="opacity:0.89" fill="#4fa5fe" d="M 79.5,42.5 C 84.2097,47.8767 88.543,53.5434 92.5,59.5C 90.8333,59.5 89.1667,59.5 87.5,59.5C 84.8435,55.5286 82.1769,51.5286 79.5,47.5C 79.5,45.8333 79.5,44.1667 79.5,42.5 Z"/></g>
<g><path style="opacity:0.864" fill="#8269ff" d="M 36.5,45.5 C 40.8986,49.5683 44.5653,54.235 47.5,59.5C 46.8333,59.5 46.1667,59.5 45.5,59.5C 42.984,55.1336 39.984,51.1336 36.5,47.5C 36.5,46.8333 36.5,46.1667 36.5,45.5 Z"/></g>
<g><path style="opacity:0.893" fill="#8862ff" d="M 34.5,47.5 C 37.1565,51.4714 39.8231,55.4714 42.5,59.5C 41.8333,59.5 41.1667,59.5 40.5,59.5C 37.8333,55.8333 35.1667,52.1667 32.5,48.5C 33.1667,48.1667 33.8333,47.8333 34.5,47.5 Z"/></g>
<g><path style="opacity:0.891" fill="#8565ff" d="M 34.5,47.5 C 35.1667,47.5 35.8333,47.5 36.5,47.5C 39.984,51.1336 42.984,55.1336 45.5,59.5C 44.5,59.5 43.5,59.5 42.5,59.5C 39.8231,55.4714 37.1565,51.4714 34.5,47.5 Z"/></g>
<g><path style="opacity:0.888" fill="#757afe" d="M 37.5,30.5 C 39.1667,31.8333 40.8333,33.1667 42.5,34.5C 42.7376,36.4044 43.7376,37.7377 45.5,38.5C 45.7376,40.4044 46.7376,41.7377 48.5,42.5C 48.5,44.1667 48.5,45.8333 48.5,47.5C 49.8333,47.5 51.1667,47.5 52.5,47.5C 53.0798,49.7488 54.4131,51.4154 56.5,52.5C 56.7376,54.4044 57.7376,55.7377 59.5,56.5C 59.5569,57.609 59.8902,58.609 60.5,59.5C 59.1667,59.5 57.8333,59.5 56.5,59.5C 49.8222,51.4809 43.4888,43.1475 37.5,34.5C 37.5,33.1667 37.5,31.8333 37.5,30.5 Z"/></g>
<g><path style="opacity:0.938" fill="#717dfe" d="M 52.5,47.5 C 52.8333,47.5 53.1667,47.5 53.5,47.5C 54.925,48.922 55.925,50.5887 56.5,52.5C 54.4131,51.4154 53.0798,49.7488 52.5,47.5 Z"/></g>
<g><path style="opacity:0.897" fill="#6e81fe" d="M 53.5,47.5 C 54.5,47.5 55.5,47.5 56.5,47.5C 57.5,49.1667 58.8333,50.5 60.5,51.5C 62.14,54.1492 63.8067,56.8159 65.5,59.5C 64.5,59.5 63.5,59.5 62.5,59.5C 61.8333,58.1667 60.8333,57.1667 59.5,56.5C 59.2624,54.5956 58.2624,53.2623 56.5,52.5C 55.925,50.5887 54.925,48.922 53.5,47.5 Z"/></g>
<g><path style="opacity:0.858" fill="#6b84fe" d="M 56.5,47.5 C 57.1667,47.5 57.8333,47.5 58.5,47.5C 59.6005,48.6049 60.2671,49.9382 60.5,51.5C 58.8333,50.5 57.5,49.1667 56.5,47.5 Z"/></g>
<g><path style="opacity:0.907" fill="#6987fe" d="M 58.5,47.5 C 59.1667,47.5 59.8333,47.5 60.5,47.5C 63.5,51.5 66.5,55.5 69.5,59.5C 68.8333,59.5 68.1667,59.5 67.5,59.5C 65.6281,56.4181 63.2948,53.7514 60.5,51.5C 60.2671,49.9382 59.6005,48.6049 58.5,47.5 Z"/></g>
<g><path style="opacity:0.892" fill="#658cfe" d="M 60.5,47.5 C 62.1667,47.5 63.8333,47.5 65.5,47.5C 68.1565,51.4714 70.8231,55.4714 73.5,59.5C 72.1667,59.5 70.8333,59.5 69.5,59.5C 66.5,55.5 63.5,51.5 60.5,47.5 Z"/></g>
<g><path style="opacity:0.884" fill="#6092fe" d="M 65.5,47.5 C 66.8333,47.5 68.1667,47.5 69.5,47.5C 72.5,51.5 75.5,55.5 78.5,59.5C 76.8333,59.5 75.1667,59.5 73.5,59.5C 70.8231,55.4714 68.1565,51.4714 65.5,47.5 Z"/></g>
<g><path style="opacity:0.893" fill="#5a99fe" d="M 69.5,47.5 C 71.1667,47.5 72.8333,47.5 74.5,47.5C 77.5,51.5 80.5,55.5 83.5,59.5C 81.8333,59.5 80.1667,59.5 78.5,59.5C 75.5,55.5 72.5,51.5 69.5,47.5 Z"/></g>
<g><path style="opacity:0.893" fill="#559ffe" d="M 74.5,47.5 C 76.1667,47.5 77.8333,47.5 79.5,47.5C 82.1769,51.5286 84.8435,55.5286 87.5,59.5C 86.1667,59.5 84.8333,59.5 83.5,59.5C 80.5,55.5 77.5,51.5 74.5,47.5 Z"/></g>
<g><path style="opacity:0.889" fill="#8a5fff" d="M 30.5,49.5 C 30.8417,48.6618 31.5084,48.3284 32.5,48.5C 35.1667,52.1667 37.8333,55.8333 40.5,59.5C 39.8333,59.5 39.1667,59.5 38.5,59.5C 36.1829,55.8536 33.5162,52.5203 30.5,49.5 Z"/></g>
<g><path style="opacity:0.888" fill="#8e5aff" d="M 30.5,49.5 C 33.5162,52.5203 36.1829,55.8536 38.5,59.5C 36.7085,59.366 35.0418,59.6993 33.5,60.5C 31.7867,57.14 30.1201,53.8067 28.5,50.5C 28.8417,49.6618 29.5084,49.3284 30.5,49.5 Z"/></g>
<g><path style="opacity:0.803" fill="#43b4fe" d="M 98.5,49.5 C 103.43,52.0172 106.43,56.0172 107.5,61.5C 103.738,58.0711 100.738,54.0711 98.5,49.5 Z"/></g>
<g><path style="opacity:0.944" fill="#9354ff" d="M 28.5,50.5 C 30.1201,53.8067 31.7867,57.14 33.5,60.5C 33.4431,61.609 33.1098,62.609 32.5,63.5C 29.8333,60.5 27.1667,57.5 24.5,54.5C 25.5,52.8333 26.8333,51.5 28.5,50.5 Z"/></g>
<g><path style="opacity:0.885" fill="#6b84fe" d="M 60.5,51.5 C 63.2948,53.7514 65.6281,56.4181 67.5,59.5C 66.8333,59.5 66.1667,59.5 65.5,59.5C 63.8067,56.8159 62.14,54.1492 60.5,51.5 Z"/></g>
<g><path style="opacity:1" fill="#717dfe" d="M 56.5,52.5 C 58.2624,53.2623 59.2624,54.5956 59.5,56.5C 57.7376,55.7377 56.7376,54.4044 56.5,52.5 Z"/></g>
<g><path style="opacity:0.904" fill="#994dff" d="M 24.5,54.5 C 27.1667,57.5 29.8333,60.5 32.5,63.5C 32.5,66.5 32.5,69.5 32.5,72.5C 29.2029,69.2635 26.3696,65.5969 24,61.5C 23.3292,60.7476 22.4959,60.4142 21.5,60.5C 21.461,57.911 22.461,55.911 24.5,54.5 Z"/></g>
<g><path style="opacity:0.677" fill="#717dfe" d="M 59.5,56.5 C 60.8333,57.1667 61.8333,58.1667 62.5,59.5C 61.8333,59.5 61.1667,59.5 60.5,59.5C 59.8902,58.609 59.5569,57.609 59.5,56.5 Z"/></g>
<g><path style="opacity:0.954" fill="#9f47fe" d="M 21.5,60.5 C 22.4959,60.4142 23.3292,60.7476 24,61.5C 26.3696,65.5969 29.2029,69.2635 32.5,72.5C 32.5,75.8333 32.5,79.1667 32.5,82.5C 28.8333,78.5 25.1667,74.5 21.5,70.5C 21.5,67.1667 21.5,63.8333 21.5,60.5 Z"/></g>
<g><path style="opacity:0.902" fill="#50a5fe" d="M 95.5,61.5 C 99.0867,67.0945 103.087,72.4278 107.5,77.5C 107.5,79.5 107.5,81.5 107.5,83.5C 103.5,78.8333 99.5,74.1667 95.5,69.5C 95.5,66.8333 95.5,64.1667 95.5,61.5 Z"/></g>
<g><path style="opacity:0.831" fill="#7a73ff" d="M 63.5,68.5 C 65.3719,71.5819 67.7052,74.2486 70.5,76.5C 70.5,78.5 70.5,80.5 70.5,82.5C 67.1667,78.5 63.8333,74.5 60.5,70.5C 61.2905,69.5987 62.2905,68.9321 63.5,68.5 Z"/></g>
<g><path style="opacity:0.905" fill="#559ffe" d="M 95.5,69.5 C 99.5,74.1667 103.5,78.8333 107.5,83.5C 107.5,85.5 107.5,87.5 107.5,89.5C 103.5,84.8333 99.5,80.1667 95.5,75.5C 95.5,73.5 95.5,71.5 95.5,69.5 Z"/></g>
<g><path style="opacity:0.898" fill="#7f6dff" d="M 60.5,70.5 C 63.8333,74.5 67.1667,78.5 70.5,82.5C 70.5,84.1667 70.5,85.8333 70.5,87.5C 66.5,82.8333 62.5,78.1667 58.5,73.5C 58.9321,72.2905 59.5987,71.2905 60.5,70.5 Z"/></g>
<g><path style="opacity:0.951" fill="#a342ff" d="M 21.5,70.5 C 25.1667,74.5 28.8333,78.5 32.5,82.5C 32.3337,89.5079 32.5004,96.5079 33,103.5C 33.9025,104.701 35.0692,105.535 36.5,106C 41.1548,106.499 45.8215,106.666 50.5,106.5C 53.1667,110.167 55.8333,113.833 58.5,117.5C 49.8269,117.666 41.1603,117.5 32.5,117C 27.4268,115.594 23.9268,112.428 22,107.5C 21.5001,95.1712 21.3335,82.8378 21.5,70.5 Z"/></g>
<g><path style="opacity:0.999" fill="#7678ff" d="M 63.5,68.5 C 67.9591,69.2931 70.2924,71.9598 70.5,76.5C 67.7052,74.2486 65.3719,71.5819 63.5,68.5 Z"/></g>
<g><path style="opacity:0.913" fill="#8269ff" d="M 58.5,73.5 C 62.5,78.1667 66.5,82.8333 70.5,87.5C 70.5,88.1667 70.5,88.8333 70.5,89.5C 66.1256,85.1278 62.1256,80.4611 58.5,75.5C 58.5,74.8333 58.5,74.1667 58.5,73.5 Z"/></g>
<g><path style="opacity:0.906" fill="#8565ff" d="M 58.5,75.5 C 62.1256,80.4611 66.1256,85.1278 70.5,89.5C 70.7373,90.791 70.404,91.791 69.5,92.5C 65.5959,88.3522 61.9292,84.0189 58.5,79.5C 58.5,78.1667 58.5,76.8333 58.5,75.5 Z"/></g>
<g><path style="opacity:0.913" fill="#5a99fe" d="M 95.5,75.5 C 99.5,80.1667 103.5,84.8333 107.5,89.5C 107.5,91.8333 107.5,94.1667 107.5,96.5C 103.874,91.5389 99.8744,86.8722 95.5,82.5C 95.5,80.1667 95.5,77.8333 95.5,75.5 Z"/></g>
<g><path style="opacity:0.905" fill="#8862ff" d="M 58.5,79.5 C 61.9292,84.0189 65.5959,88.3522 69.5,92.5C 69.6716,93.4916 69.3382,94.1583 68.5,94.5C 65.5434,90.2079 62.2101,86.2079 58.5,82.5C 58.5,81.5 58.5,80.5 58.5,79.5 Z"/></g>
<g><path style="opacity:0.915" fill="#8a5fff" d="M 58.5,82.5 C 62.2101,86.2079 65.5434,90.2079 68.5,94.5C 68.1583,95.3382 67.4916,95.6716 66.5,95.5C 64.1829,91.8536 61.5162,88.5203 58.5,85.5C 58.5,84.5 58.5,83.5 58.5,82.5 Z"/></g>
<g><path style="opacity:0.915" fill="#6092fe" d="M 95.5,82.5 C 99.8744,86.8722 103.874,91.5389 107.5,96.5C 107.5,98.1667 107.5,99.8333 107.5,101.5C 103.5,96.8333 99.5,92.1667 95.5,87.5C 95.5,85.8333 95.5,84.1667 95.5,82.5 Z"/></g>
<g><path style="opacity:0.901" fill="#8d5bff" d="M 58.5,85.5 C 61.5162,88.5203 64.1829,91.8536 66.5,95.5C 66.1583,96.3382 65.4916,96.6716 64.5,96.5C 62.4707,94.1415 60.4707,91.8082 58.5,89.5C 58.5,88.1667 58.5,86.8333 58.5,85.5 Z"/></g>
<g><path style="opacity:0.876" fill="#658cfe" d="M 95.5,87.5 C 99.5,92.1667 103.5,96.8333 107.5,101.5C 107.784,103.415 107.451,105.081 106.5,106.5C 102.822,101.794 99.1556,97.1277 95.5,92.5C 95.5,90.8333 95.5,89.1667 95.5,87.5 Z"/></g>
<g><path style="opacity:0.784" fill="#9057ff" d="M 58.5,89.5 C 60.4707,91.8082 62.4707,94.1415 64.5,96.5C 60.3617,96.0268 58.3617,93.6935 58.5,89.5 Z"/></g>
<g><path style="opacity:0.883" fill="#6987fe" d="M 95.5,92.5 C 99.1556,97.1277 102.822,101.794 106.5,106.5C 106.672,107.492 106.338,108.158 105.5,108.5C 104.2,105.568 102.2,103.234 99.5,101.5C 98.5514,99.2228 97.2181,97.2228 95.5,95.5C 95.5,94.5 95.5,93.5 95.5,92.5 Z"/></g>
<g><path style="opacity:0.699" fill="#6b84fe" d="M 95.5,95.5 C 97.2181,97.2228 98.5514,99.2228 99.5,101.5C 98.1667,100.5 96.8333,99.5 95.5,98.5C 95.5,97.5 95.5,96.5 95.5,95.5 Z"/></g>
<g><path style="opacity:0.859" fill="#6e81fe" d="M 95.5,98.5 C 96.8333,99.5 98.1667,100.5 99.5,101.5C 101.016,104.533 103.016,107.2 105.5,109.5C 105.167,110.5 104.5,111.167 103.5,111.5C 102.527,109.861 101.194,108.527 99.5,107.5C 98.9202,105.251 97.5869,103.585 95.5,102.5C 95.5,101.167 95.5,99.8333 95.5,98.5 Z"/></g>
<g><path style="opacity:0.975" fill="#6b84fe" d="M 99.5,101.5 C 102.2,103.234 104.2,105.568 105.5,108.5C 105.5,108.833 105.5,109.167 105.5,109.5C 103.016,107.2 101.016,104.533 99.5,101.5 Z"/></g>
<g><path style="opacity:0.893" fill="#717dfe" d="M 95.5,102.5 C 97.5869,103.585 98.9202,105.251 99.5,107.5C 98.1667,106.5 96.8333,105.5 95.5,104.5C 95.5,103.833 95.5,103.167 95.5,102.5 Z"/></g>
<g><path style="opacity:0.948" fill="#7579fe" d="M 95.5,104.5 C 96.8333,105.5 98.1667,106.5 99.5,107.5C 100.11,109.434 101.11,111.101 102.5,112.5C 101.833,113.833 100.833,114.833 99.5,115.5C 97.5179,112.19 95.1846,109.19 92.5,106.5C 93.2905,105.599 94.2905,104.932 95.5,104.5 Z"/></g>
<g><path style="opacity:0.964" fill="#9f47fe" d="M 50.5,106.5 C 53.5,106.5 56.5,106.5 59.5,106.5C 62.083,109.997 64.4164,113.664 66.5,117.5C 63.8333,117.5 61.1667,117.5 58.5,117.5C 55.8333,113.833 53.1667,110.167 50.5,106.5 Z"/></g>
<g><path style="opacity:0.966" fill="#994dff" d="M 59.5,106.5 C 61.5,106.5 63.5,106.5 65.5,106.5C 68.1667,110.167 70.8333,113.833 73.5,117.5C 71.1667,117.5 68.8333,117.5 66.5,117.5C 64.4164,113.664 62.083,109.997 59.5,106.5 Z"/></g>
<g><path style="opacity:0.968" fill="#9354ff" d="M 65.5,106.5 C 67.1667,106.5 68.8333,106.5 70.5,106.5C 71.5,108.167 72.8333,109.5 74.5,110.5C 75.8333,112.833 77.1667,115.167 78.5,117.5C 76.8333,117.5 75.1667,117.5 73.5,117.5C 70.8333,113.833 68.1667,110.167 65.5,106.5 Z"/></g>
<g><path style="opacity:0.945" fill="#9058ff" d="M 70.5,106.5 C 71.1667,106.5 71.8333,106.5 72.5,106.5C 73.6005,107.605 74.2671,108.938 74.5,110.5C 72.8333,109.5 71.5,108.167 70.5,106.5 Z"/></g>
<g><path style="opacity:0.966" fill="#8e5aff" d="M 72.5,106.5 C 73.5,106.5 74.5,106.5 75.5,106.5C 78.1667,110.167 80.8333,113.833 83.5,117.5C 81.8333,117.5 80.1667,117.5 78.5,117.5C 77.1667,115.167 75.8333,112.833 74.5,110.5C 74.2671,108.938 73.6005,107.605 72.5,106.5 Z"/></g>
<g><path style="opacity:0.964" fill="#8a5fff" d="M 75.5,106.5 C 76.5,106.5 77.5,106.5 78.5,106.5C 81.083,109.997 83.4164,113.664 85.5,117.5C 84.8333,117.5 84.1667,117.5 83.5,117.5C 80.8333,113.833 78.1667,110.167 75.5,106.5 Z"/></g>
<g><path style="opacity:0.958" fill="#8862ff" d="M 78.5,106.5 C 79.1667,106.5 79.8333,106.5 80.5,106.5C 82.9127,110.314 85.5793,113.981 88.5,117.5C 87.5,117.5 86.5,117.5 85.5,117.5C 83.4164,113.664 81.083,109.997 78.5,106.5 Z"/></g>
<g><path style="opacity:0.967" fill="#8565ff" d="M 80.5,106.5 C 81.5,106.5 82.5,106.5 83.5,106.5C 86.1667,110.167 88.8333,113.833 91.5,117.5C 90.5,117.5 89.5,117.5 88.5,117.5C 85.5793,113.981 82.9127,110.314 80.5,106.5 Z"/></g>
<g><path style="opacity:0.959" fill="#8269ff" d="M 83.5,106.5 C 84.1667,106.5 84.8333,106.5 85.5,106.5C 87.922,110.344 90.5887,114.01 93.5,117.5C 92.8333,117.5 92.1667,117.5 91.5,117.5C 88.8333,113.833 86.1667,110.167 83.5,106.5 Z"/></g>
<g><path style="opacity:0.937" fill="#7f6dff" d="M 85.5,106.5 C 86.8333,106.5 88.1667,106.5 89.5,106.5C 91.8333,109.833 94.1667,113.167 96.5,116.5C 95.791,117.404 94.791,117.737 93.5,117.5C 90.5887,114.01 87.922,110.344 85.5,106.5 Z"/></g>
<g><path style="opacity:0.953" fill="#7a73ff" d="M 89.5,106.5 C 90.5,106.5 91.5,106.5 92.5,106.5C 95.1846,109.19 97.5179,112.19 99.5,115.5C 98.609,116.11 97.609,116.443 96.5,116.5C 94.1667,113.167 91.8333,109.833 89.5,106.5 Z"/></g>
<g><path style="opacity:0.942" fill="#717dfe" d="M 99.5,107.5 C 101.194,108.527 102.527,109.861 103.5,111.5C 103.5,112.167 103.167,112.5 102.5,112.5C 101.11,111.101 100.11,109.434 99.5,107.5 Z"/></g>
</svg>
