<?xml version="1.0" encoding="UTF-8"?>
<!DOCTYPE svg PUBLIC "-//W3C//DTD SVG 1.1//EN" "http://www.w3.org/Graphics/SVG/1.1/DTD/svg11.dtd">
<svg xmlns="http://www.w3.org/2000/svg" version="1.1" width="64px" height="64px" style="shape-rendering:geometricPrecision; text-rendering:geometricPrecision; image-rendering:optimizeQuality; fill-rule:evenodd; clip-rule:evenodd" xmlns:xlink="http://www.w3.org/1999/xlink">
<g><path style="opacity:0.816" fill="#4babfe" d="M 29.5,5.5 C 31.1563,7.46018 32.823,9.46018 34.5,11.5C 33.1667,11.5 31.8333,11.5 30.5,11.5C 29.925,9.5887 28.925,7.92203 27.5,6.5C 27.8417,5.66175 28.5084,5.32842 29.5,5.5 Z"/></g>
<g><path style="opacity:0.84" fill="#41b7fe" d="M 34.5,5.5 C 42.6071,7.69852 46.2737,13.0319 45.5,21.5C 40.8305,16.8183 37.1639,11.485 34.5,5.5 Z"/></g>
<g><path style="opacity:0.948" fill="#50a5fe" d="M 25.5,7.5 C 25.8417,6.66175 26.5084,6.32842 27.5,6.5C 28.925,7.92203 29.925,9.5887 30.5,11.5C 30.1667,11.5 29.8333,11.5 29.5,11.5C 27.8058,10.4726 26.4725,9.13924 25.5,7.5 Z"/></g>
<g><path style="opacity:0.851" fill="#559ffe" d="M 23.5,8.5 C 23.8417,7.66175 24.5084,7.32842 25.5,7.5C 26.4725,9.13924 27.8058,10.4726 29.5,11.5C 29.1583,12.3382 28.4916,12.6716 27.5,12.5C 26.5275,10.8608 25.1942,9.52743 23.5,8.5 Z"/></g>
<g><path style="opacity:0.886" fill="#5a98fe" d="M 23.5,8.5 C 25.1942,9.52743 26.5275,10.8608 27.5,12.5C 27.5,13.1667 27.1667,13.5 26.5,13.5C 24.8333,12.5 23.5,11.1667 22.5,9.5C 22.5,8.83333 22.8333,8.5 23.5,8.5 Z"/></g>
<g><path style="opacity:0.891" fill="#5f92fe" d="M 22.5,9.5 C 23.5,11.1667 24.8333,12.5 26.5,13.5C 26.1667,14.5 25.5,15.1667 24.5,15.5C 23.7515,13.6675 22.7515,12.0009 21.5,10.5C 21.5,9.83333 21.8333,9.5 22.5,9.5 Z"/></g>
<g><path style="opacity:0.628" fill="#6986fe" d="M 20.5,11.5 C 21.1237,13.754 22.457,15.4206 24.5,16.5C 24.5,17.5 24.5,18.5 24.5,19.5C 22.8333,17.5 21.1667,15.5 19.5,13.5C 19.3284,12.5084 19.6618,11.8417 20.5,11.5 Z"/></g>
<g><path style="opacity:0.99" fill="#658cfe" d="M 21.5,10.5 C 22.7515,12.0009 23.7515,13.6675 24.5,15.5C 24.5,15.8333 24.5,16.1667 24.5,16.5C 22.457,15.4206 21.1237,13.754 20.5,11.5C 20.5,10.8333 20.8333,10.5 21.5,10.5 Z"/></g>
<g><path style="opacity:0.923" fill="#46b1fe" d="M 29.5,5.5 C 31.1667,5.5 32.8333,5.5 34.5,5.5C 37.1639,11.485 40.8305,16.8183 45.5,21.5C 45.427,23.0269 46.0937,24.0269 47.5,24.5C 49.5116,27.205 51.5116,29.8717 53.5,32.5C 53.5,33.8333 53.5,35.1667 53.5,36.5C 48.8333,30.5 44.1667,24.5 39.5,18.5C 38.9565,15.3004 37.2898,12.9671 34.5,11.5C 32.823,9.46018 31.1563,7.46018 29.5,5.5 Z"/></g>
<g><path style="opacity:1" fill="#6e81fe" d="M 18.5,14.5 C 18.5,13.8333 18.8333,13.5 19.5,13.5C 21.1667,15.5 22.8333,17.5 24.5,19.5C 24.5,20.5 24.5,21.5 24.5,22.5C 22.1153,20.1162 20.1153,17.4495 18.5,14.5 Z"/></g>
<g><path style="opacity:0.839" fill="#747afe" d="M 18.5,14.5 C 20.1153,17.4495 22.1153,20.1162 24.5,22.5C 24.5,23.1667 24.8333,23.5 25.5,23.5C 26.8611,25.8505 28.1944,28.1838 29.5,30.5C 28.8333,30.5 28.1667,30.5 27.5,30.5C 24.7467,25.9924 21.7467,21.6591 18.5,17.5C 18.5,16.5 18.5,15.5 18.5,14.5 Z"/></g>
<g><path style="opacity:0.839" fill="#7974ff" d="M 18.5,17.5 C 21.7467,21.6591 24.7467,25.9924 27.5,30.5C 26.8333,30.5 26.1667,30.5 25.5,30.5C 23.0659,26.6183 20.3993,22.9516 17.5,19.5C 17.3284,18.5084 17.6618,17.8417 18.5,17.5 Z"/></g>
<g><path style="opacity:0.814" fill="#7e6eff" d="M 17.5,19.5 C 20.3993,22.9516 23.0659,26.6183 25.5,30.5C 24.8333,30.5 24.1667,30.5 23.5,30.5C 22.0787,27.9906 20.4121,25.6572 18.5,23.5C 17.7659,22.2921 17.4326,20.9587 17.5,19.5 Z"/></g>
<g><path style="opacity:0.857" fill="#4babfe" d="M 39.5,18.5 C 44.1667,24.5 48.8333,30.5 53.5,36.5C 53.5,37.8333 53.5,39.1667 53.5,40.5C 51.5,38.1667 49.5,35.8333 47.5,33.5C 47.573,31.9731 46.9063,30.9731 45.5,30.5C 43.7267,27.9401 41.7267,25.6068 39.5,23.5C 39.5,21.8333 39.5,20.1667 39.5,18.5 Z"/></g>
<g><path style="opacity:0.737" fill="#6986fe" d="M 27.5,23.5 C 28.1667,23.5 28.8333,23.5 29.5,23.5C 30.8611,25.8505 32.1944,28.1838 33.5,30.5C 33.1667,30.5 32.8333,30.5 32.5,30.5C 30.5879,28.3428 28.9213,26.0094 27.5,23.5 Z"/></g>
<g><path style="opacity:0.763" fill="#6092fe" d="M 31.5,23.5 C 32.1667,23.5 32.8333,23.5 33.5,23.5C 34.8611,25.8505 36.1944,28.1838 37.5,30.5C 36.8333,30.5 36.1667,30.5 35.5,30.5C 34.1944,28.1838 32.8611,25.8505 31.5,23.5 Z"/></g>
<g><path style="opacity:0.766" fill="#5a98fe" d="M 33.5,23.5 C 34.1667,23.5 34.8333,23.5 35.5,23.5C 37.4121,25.6572 39.0787,27.9906 40.5,30.5C 39.5,30.5 38.5,30.5 37.5,30.5C 36.1944,28.1838 34.8611,25.8505 33.5,23.5 Z"/></g>
<g><path style="opacity:0.763" fill="#559ffe" d="M 35.5,23.5 C 36.5,23.5 37.5,23.5 38.5,23.5C 39.8056,25.8162 41.1389,28.1495 42.5,30.5C 41.8333,30.5 41.1667,30.5 40.5,30.5C 39.0787,27.9906 37.4121,25.6572 35.5,23.5 Z"/></g>
<g><path style="opacity:0.787" fill="#50a5fe" d="M 38.5,23.5 C 38.8333,23.5 39.1667,23.5 39.5,23.5C 41.7267,25.6068 43.7267,27.9401 45.5,30.5C 44.5,30.5 43.5,30.5 42.5,30.5C 41.1389,28.1495 39.8056,25.8162 38.5,23.5 Z"/></g>
<g><path style="opacity:0.992" fill="#648cfe" d="M 29.5,23.5 C 30.1667,23.5 30.8333,23.5 31.5,23.5C 32.8611,25.8505 34.1944,28.1838 35.5,30.5C 34.8333,30.5 34.1667,30.5 33.5,30.5C 32.1944,28.1838 30.8611,25.8505 29.5,23.5 Z"/></g>
<g><path style="opacity:1" fill="#8e5aff" d="M 13.5,26.5 C 13.5,25.8333 13.8333,25.5 14.5,25.5C 16.543,26.5794 17.8763,28.246 18.5,30.5C 17.8333,30.5 17.1667,30.5 16.5,30.5C 15.4884,29.1283 14.4884,27.795 13.5,26.5 Z"/></g>
<g><path style="opacity:0.626" fill="#42b6fe" d="M 47.5,24.5 C 51.4119,25.7438 53.4119,28.4105 53.5,32.5C 51.5116,29.8717 49.5116,27.205 47.5,24.5 Z"/></g>
<g><path style="opacity:0.903" fill="#9354ff" d="M 13.5,26.5 C 14.4884,27.795 15.4884,29.1283 16.5,30.5C 16.5,31.1667 16.5,31.8333 16.5,32.5C 14.8207,31.0837 13.1541,29.7503 11.5,28.5C 11.8333,27.5 12.5,26.8333 13.5,26.5 Z"/></g>
<g><path style="opacity:0.89" fill="#6e81fe" d="M 25.5,23.5 C 26.1667,23.5 26.8333,23.5 27.5,23.5C 28.9213,26.0094 30.5879,28.3428 32.5,30.5C 31.5,30.5 30.5,30.5 29.5,30.5C 28.1944,28.1838 26.8611,25.8505 25.5,23.5 Z"/></g>
<g><path style="opacity:0.834" fill="#8960ff" d="M 14.5,25.5 C 15.209,24.596 16.209,24.2627 17.5,24.5C 18.5,26.5 19.5,28.5 20.5,30.5C 19.8333,30.5 19.1667,30.5 18.5,30.5C 17.8763,28.246 16.543,26.5794 14.5,25.5 Z"/></g>
<g><path style="opacity:0.809" fill="#994dff" d="M 11.5,28.5 C 13.1541,29.7503 14.8207,31.0837 16.5,32.5C 16.5,34.1667 16.5,35.8333 16.5,37.5C 14.8122,35.1455 12.8122,33.1455 10.5,31.5C 10.2627,30.209 10.596,29.209 11.5,28.5 Z"/></g>
<g><path style="opacity:0.561" fill="#8467ff" d="M 18.5,23.5 C 20.4121,25.6572 22.0787,27.9906 23.5,30.5C 22.5,30.5 21.5,30.5 20.5,30.5C 19.5,28.5 18.5,26.5 17.5,24.5C 17.5,23.8333 17.8333,23.5 18.5,23.5 Z"/></g>
<g><path style="opacity:0.888" fill="#9f47fe" d="M 10.5,31.5 C 12.8122,33.1455 14.8122,35.1455 16.5,37.5C 16.5,39.1667 16.5,40.8333 16.5,42.5C 14.5,40.1667 12.5,37.8333 10.5,35.5C 10.5,34.1667 10.5,32.8333 10.5,31.5 Z"/></g>
<g><path style="opacity:0.876" fill="#50a5fe" d="M 47.5,33.5 C 49.5,35.8333 51.5,38.1667 53.5,40.5C 53.5,41.5 53.5,42.5 53.5,43.5C 51.5,41.5 49.5,39.5 47.5,37.5C 47.5,36.1667 47.5,34.8333 47.5,33.5 Z"/></g>
<g><path style="opacity:0.788" fill="#7a74ff" d="M 31.5,34.5 C 32.1237,36.754 33.457,38.4206 35.5,39.5C 35.5,40.5 35.5,41.5 35.5,42.5C 33.5,40.5 31.5,38.5 29.5,36.5C 29.8333,35.5 30.5,34.8333 31.5,34.5 Z"/></g>
<g><path style="opacity:0.489" fill="#747afe" d="M 31.5,34.5 C 34.2974,34.9666 35.6308,36.6333 35.5,39.5C 33.457,38.4206 32.1237,36.754 31.5,34.5 Z"/></g>
<g><path style="opacity:0.896" fill="#a342ff" d="M 10.5,35.5 C 12.5,37.8333 14.5,40.1667 16.5,42.5C 16.335,45.8499 16.5017,49.1832 17,52.5C 19.3806,53.435 21.8806,53.7683 24.5,53.5C 25.8333,55.5 27.1667,57.5 28.5,59.5C 23.8215,59.6658 19.1548,59.4992 14.5,59C 13.3333,57.8333 12.1667,56.6667 11,55.5C 10.5004,48.8417 10.3337,42.175 10.5,35.5 Z"/></g>
<g><path style="opacity:0.807" fill="#7f6dff" d="M 28.5,37.5 C 28.5,36.8333 28.8333,36.5 29.5,36.5C 31.5,38.5 33.5,40.5 35.5,42.5C 35.5,43.8333 35.5,45.1667 35.5,46.5C 33.1667,43.5 30.8333,40.5 28.5,37.5 Z"/></g>
<g><path style="opacity:0.915" fill="#559ffe" d="M 47.5,37.5 C 49.5,39.5 51.5,41.5 53.5,43.5C 53.5,44.5 53.5,45.5 53.5,46.5C 51.5,44.5 49.5,42.5 47.5,40.5C 47.5,39.5 47.5,38.5 47.5,37.5 Z"/></g>
<g><path style="opacity:1" fill="#8466ff" d="M 28.5,37.5 C 30.8333,40.5 33.1667,43.5 35.5,46.5C 35.1667,47.5 34.5,48.1667 33.5,48.5C 32.2213,45.5623 30.5547,42.8956 28.5,40.5C 28.5,39.5 28.5,38.5 28.5,37.5 Z"/></g>
<g><path style="opacity:0.901" fill="#5a98fe" d="M 47.5,40.5 C 49.5,42.5 51.5,44.5 53.5,46.5C 53.5,47.8333 53.5,49.1667 53.5,50.5C 51.5,48.1667 49.5,45.8333 47.5,43.5C 47.5,42.5 47.5,41.5 47.5,40.5 Z"/></g>
<g><path style="opacity:1" fill="#8a5fff" d="M 28.5,40.5 C 30.5547,42.8956 32.2213,45.5623 33.5,48.5C 33.5,49.1667 33.1667,49.5 32.5,49.5C 32.1667,47.1667 30.8333,45.8333 28.5,45.5C 28.5,43.8333 28.5,42.1667 28.5,40.5 Z"/></g>
<g><path style="opacity:0.891" fill="#6092fe" d="M 47.5,43.5 C 49.5,45.8333 51.5,48.1667 53.5,50.5C 53.5,51.1667 53.5,51.8333 53.5,52.5C 51.5,50.5 49.5,48.5 47.5,46.5C 47.5,45.5 47.5,44.5 47.5,43.5 Z"/></g>
<g><path style="opacity:0.876" fill="#8e5aff" d="M 28.5,45.5 C 30.8333,45.8333 32.1667,47.1667 32.5,49.5C 30.1667,49.1667 28.8333,47.8333 28.5,45.5 Z"/></g>
<g><path style="opacity:1" fill="#658cfe" d="M 47.5,46.5 C 49.5,48.5 51.5,50.5 53.5,52.5C 53.7373,53.791 53.404,54.791 52.5,55.5C 51.1891,52.8646 49.5224,50.5313 47.5,48.5C 47.5,47.8333 47.5,47.1667 47.5,46.5 Z"/></g>
<g><path style="opacity:0.872" fill="#6f80fe" d="M 47.5,51.5 C 49.543,52.5794 50.8763,54.246 51.5,56.5C 51.5,57.1667 51.1667,57.5 50.5,57.5C 49.5275,55.8608 48.1942,54.5274 46.5,53.5C 46.8333,52.8333 47.1667,52.1667 47.5,51.5 Z"/></g>
<g><path style="opacity:1" fill="#6987fe" d="M 47.5,48.5 C 49.5224,50.5313 51.1891,52.8646 52.5,55.5C 52.5,56.1667 52.1667,56.5 51.5,56.5C 50.8763,54.246 49.543,52.5794 47.5,51.5C 47.5,50.5 47.5,49.5 47.5,48.5 Z"/></g>
<g><path style="opacity:0.878" fill="#9f47fe" d="M 24.5,53.5 C 25.8333,53.5 27.1667,53.5 28.5,53.5C 29.8333,55.5 31.1667,57.5 32.5,59.5C 31.1667,59.5 29.8333,59.5 28.5,59.5C 27.1667,57.5 25.8333,55.5 24.5,53.5 Z"/></g>
<g><path style="opacity:0.889" fill="#994dff" d="M 28.5,53.5 C 29.5,53.5 30.5,53.5 31.5,53.5C 33.2255,55.2279 34.5589,57.2279 35.5,59.5C 34.5,59.5 33.5,59.5 32.5,59.5C 31.1667,57.5 29.8333,55.5 28.5,53.5 Z"/></g>
<g><path style="opacity:0.891" fill="#9354ff" d="M 31.5,53.5 C 32.5,53.5 33.5,53.5 34.5,53.5C 35.4411,55.7721 36.7745,57.7721 38.5,59.5C 37.5,59.5 36.5,59.5 35.5,59.5C 34.5589,57.2279 33.2255,55.2279 31.5,53.5 Z"/></g>
<g><path style="opacity:0.903" fill="#8e5aff" d="M 34.5,53.5 C 35.1667,53.5 35.8333,53.5 36.5,53.5C 37.8333,55.5 39.1667,57.5 40.5,59.5C 39.8333,59.5 39.1667,59.5 38.5,59.5C 36.7745,57.7721 35.4411,55.7721 34.5,53.5 Z"/></g>
<g><path style="opacity:0.867" fill="#7e6dff" d="M 40.5,53.5 C 41.5,53.5 42.5,53.5 43.5,53.5C 44.8333,55.5 46.1667,57.5 47.5,59.5C 46.8333,59.5 46.1667,59.5 45.5,59.5C 43.823,57.4602 42.1563,55.4602 40.5,53.5 Z"/></g>
<g><path style="opacity:0.761" fill="#7a74ff" d="M 43.5,53.5 C 44.1667,53.5 44.8333,53.5 45.5,53.5C 46.604,55.3885 47.9373,57.0552 49.5,58.5C 49.1583,59.3382 48.4916,59.6716 47.5,59.5C 46.1667,57.5 44.8333,55.5 43.5,53.5 Z"/></g>
<g><path style="opacity:0.869" fill="#747aff" d="M 45.5,53.5 C 45.8333,53.5 46.1667,53.5 46.5,53.5C 48.1942,54.5274 49.5275,55.8608 50.5,57.5C 50.5,58.1667 50.1667,58.5 49.5,58.5C 47.9373,57.0552 46.604,55.3885 45.5,53.5 Z"/></g>
<g><path style="opacity:1" fill="#8a5fff" d="M 36.5,53.5 C 37.1667,53.5 37.8333,53.5 38.5,53.5C 39.8333,55.5 41.1667,57.5 42.5,59.5C 41.8333,59.5 41.1667,59.5 40.5,59.5C 39.1667,57.5 37.8333,55.5 36.5,53.5 Z"/></g>
<g><path style="opacity:0.951" fill="#8466ff" d="M 38.5,53.5 C 39.1667,53.5 39.8333,53.5 40.5,53.5C 42.1563,55.4602 43.823,57.4602 45.5,59.5C 44.5,59.5 43.5,59.5 42.5,59.5C 41.1667,57.5 39.8333,55.5 38.5,53.5 Z"/></g>
</svg>
